<?xml version="1.0" encoding="UTF-8" standalone="no"?><!-- Generator: Gravit.io --><svg xmlns="http://www.w3.org/2000/svg" xmlns:xlink="http://www.w3.org/1999/xlink" style="isolation:isolate" viewBox="496.945 -524.293 605.506 94.23" width="605.506pt" height="94.23pt"><g><path d=" M 667.8 -467.6 C 667.8 -487.151 651.951 -503 632.4 -503 C 612.849 -503 597 -487.151 597 -467.6 C 597 -448.049 612.849 -432.2 632.4 -432.2 L 667.8 -432.2 L 667.8 -438.1 L 651.944 -438.1 C 661.841 -444.653 667.796 -455.729 667.8 -467.6 Z  M 649.74 -443.734 C 645.786 -440.861 640.25 -441.737 637.378 -445.693 C 634.506 -449.646 635.382 -455.181 639.336 -458.054 C 643.291 -460.926 648.825 -460.051 651.697 -456.095 C 654.571 -452.141 653.694 -446.607 649.74 -443.734 Z  M 649.305 -482.398 C 653.953 -483.909 658.946 -481.365 660.457 -476.716 C 661.966 -472.067 659.422 -467.074 654.774 -465.565 C 650.126 -464.054 645.133 -466.597 643.622 -471.246 C 642.113 -475.894 644.657 -480.888 649.305 -482.398 Z  M 632.4 -497.1 C 637.287 -497.1 641.25 -493.137 641.25 -488.25 C 641.25 -483.363 637.287 -479.4 632.4 -479.4 C 627.513 -479.4 623.55 -483.363 623.55 -488.25 C 623.55 -493.137 627.513 -497.1 632.4 -497.1 Z  M 604.343 -476.716 C 605.854 -481.365 610.847 -483.909 615.495 -482.399 C 620.143 -480.888 622.687 -475.895 621.178 -471.247 C 619.667 -466.599 614.674 -464.055 610.026 -465.565 C 605.378 -467.074 602.834 -472.067 604.343 -476.716 Z  M 627.422 -445.693 C 624.55 -441.737 619.014 -440.861 615.06 -443.734 C 611.106 -446.607 610.229 -452.141 613.103 -456.095 C 615.975 -460.049 621.51 -460.926 625.464 -458.053 C 629.418 -455.181 630.294 -449.646 627.422 -445.693 Z  M 629.45 -467.6 C 629.45 -469.229 630.771 -470.55 632.4 -470.55 C 634.029 -470.55 635.35 -469.229 635.35 -467.6 C 635.35 -465.971 634.029 -464.65 632.4 -464.65 C 630.771 -464.65 629.45 -465.971 629.45 -467.6 Z " fill="rgb(255,255,255)"/><path d=" M 676.777 -499.476 L 694.098 -447.132 L 710.979 -499.476 L 722.884 -499.476 L 698.445 -431.322 L 689.563 -431.322 L 664.872 -499.476 L 676.777 -499.476 L 676.777 -499.476 Z  M 746.757 -499.476 L 746.757 -431.322 L 735.104 -431.322 L 735.104 -499.476 L 746.757 -499.476 L 746.757 -499.476 Z  M 734.159 -517.553 L 734.159 -517.553 L 734.159 -517.553 Q 734.159 -520.388 735.891 -522.34 L 735.891 -522.34 L 735.891 -522.34 Q 737.623 -524.293 741.025 -524.293 L 741.025 -524.293 L 741.025 -524.293 Q 744.426 -524.293 746.19 -522.34 L 746.19 -522.34 L 746.19 -522.34 Q 747.953 -520.388 747.953 -517.553 L 747.953 -517.553 L 747.953 -517.553 Q 747.953 -514.719 746.19 -512.829 L 746.19 -512.829 L 746.19 -512.829 Q 744.426 -510.939 741.025 -510.939 L 741.025 -510.939 L 741.025 -510.939 Q 737.623 -510.939 735.891 -512.829 L 735.891 -512.829 L 735.891 -512.829 Q 734.159 -514.719 734.159 -517.553 Z  M 793.683 -430.062 L 793.683 -430.062 L 793.683 -430.062 Q 779.825 -430.062 771.133 -439.164 L 771.133 -439.164 L 771.133 -439.164 Q 762.441 -448.266 762.441 -463.509 L 762.441 -463.509 L 762.441 -465.651 L 762.441 -465.651 Q 762.441 -475.792 766.314 -483.76 L 766.314 -483.76 L 766.314 -483.76 Q 770.188 -491.728 777.148 -496.232 L 777.148 -496.232 L 777.148 -496.232 Q 784.109 -500.735 792.234 -500.735 L 792.234 -500.735 L 792.234 -500.735 Q 805.525 -500.735 812.894 -491.98 L 812.894 -491.98 L 812.894 -491.98 Q 820.264 -483.225 820.264 -466.911 L 820.264 -466.911 L 820.264 -462.061 L 774.093 -462.061 L 774.093 -462.061 Q 774.345 -451.982 779.983 -445.778 L 779.983 -445.778 L 779.983 -445.778 Q 785.62 -439.574 794.313 -439.574 L 794.313 -439.574 L 794.313 -439.574 Q 800.486 -439.574 804.769 -442.093 L 804.769 -442.093 L 804.769 -442.093 Q 809.052 -444.613 812.264 -448.77 L 812.264 -448.77 L 819.382 -443.227 L 819.382 -443.227 Q 810.816 -430.062 793.683 -430.062 Z  M 792.234 -491.161 L 792.234 -491.161 L 792.234 -491.161 Q 785.179 -491.161 780.392 -486.028 L 780.392 -486.028 L 780.392 -486.028 Q 775.605 -480.894 774.471 -471.635 L 774.471 -471.635 L 808.611 -471.635 L 808.611 -472.517 L 808.611 -472.517 Q 808.107 -481.398 803.824 -486.28 L 803.824 -486.28 L 803.824 -486.28 Q 799.541 -491.161 792.234 -491.161 Z  M 869.269 -467.226 L 847.664 -467.226 L 847.664 -431.322 L 835.57 -431.322 L 835.57 -523.033 L 869.395 -523.033 L 869.395 -523.033 Q 884.449 -523.033 892.984 -515.349 L 892.984 -515.349 L 892.984 -515.349 Q 901.519 -507.664 901.519 -495.003 L 901.519 -495.003 L 901.519 -495.003 Q 901.519 -481.65 893.173 -474.438 L 893.173 -474.438 L 893.173 -474.438 Q 884.827 -467.226 869.269 -467.226 L 869.269 -467.226 L 869.269 -467.226 Z  M 847.664 -513.081 L 847.664 -477.115 L 869.395 -477.115 L 869.395 -477.115 Q 879.095 -477.115 884.26 -481.681 L 884.26 -481.681 L 884.26 -481.681 Q 889.425 -486.248 889.425 -494.877 L 889.425 -494.877 L 889.425 -494.877 Q 889.425 -503.066 884.26 -507.979 L 884.26 -507.979 L 884.26 -507.979 Q 879.095 -512.892 870.088 -513.081 L 870.088 -513.081 L 847.664 -513.081 L 847.664 -513.081 Z  M 968.727 -431.322 L 956.508 -431.322 L 956.508 -431.322 Q 955.5 -433.338 954.87 -438.503 L 954.87 -438.503 L 954.87 -438.503 Q 946.744 -430.062 935.469 -430.062 L 935.469 -430.062 L 935.469 -430.062 Q 925.391 -430.062 918.935 -435.763 L 918.935 -435.763 L 918.935 -435.763 Q 912.479 -441.463 912.479 -450.219 L 912.479 -450.219 L 912.479 -450.219 Q 912.479 -460.864 920.573 -466.753 L 920.573 -466.753 L 920.573 -466.753 Q 928.667 -472.643 943.343 -472.643 L 943.343 -472.643 L 954.681 -472.643 L 954.681 -477.997 L 954.681 -477.997 Q 954.681 -484.106 951.028 -487.728 L 951.028 -487.728 L 951.028 -487.728 Q 947.374 -491.35 940.257 -491.35 L 940.257 -491.35 L 940.257 -491.35 Q 934.021 -491.35 929.8 -488.201 L 929.8 -488.201 L 929.8 -488.201 Q 925.58 -485.051 925.58 -480.579 L 925.58 -480.579 L 913.864 -480.579 L 913.864 -480.579 Q 913.864 -485.681 917.486 -490.437 L 917.486 -490.437 L 917.486 -490.437 Q 921.108 -495.192 927.312 -497.964 L 927.312 -497.964 L 927.312 -497.964 Q 933.517 -500.735 940.949 -500.735 L 940.949 -500.735 L 940.949 -500.735 Q 952.728 -500.735 959.405 -494.846 L 959.405 -494.846 L 959.405 -494.846 Q 966.082 -488.957 966.334 -478.626 L 966.334 -478.626 L 966.334 -447.258 L 966.334 -447.258 Q 966.334 -437.873 968.727 -432.33 L 968.727 -432.33 L 968.727 -431.322 L 968.727 -431.322 Z  M 937.17 -440.204 L 937.17 -440.204 L 937.17 -440.204 Q 942.65 -440.204 947.563 -443.038 L 947.563 -443.038 L 947.563 -443.038 Q 952.476 -445.873 954.681 -450.408 L 954.681 -450.408 L 954.681 -464.391 L 945.548 -464.391 L 945.548 -464.391 Q 924.132 -464.391 924.132 -451.856 L 924.132 -451.856 L 924.132 -451.856 Q 924.132 -446.376 927.785 -443.29 L 927.785 -443.29 L 927.785 -443.29 Q 931.438 -440.204 937.17 -440.204 Z  M 1024.283 -449.4 L 1024.283 -449.4 L 1024.283 -449.4 Q 1024.283 -454.124 1020.724 -456.738 L 1020.724 -456.738 L 1020.724 -456.738 Q 1017.165 -459.352 1008.315 -461.242 L 1008.315 -461.242 L 1008.315 -461.242 Q 999.466 -463.131 994.269 -465.777 L 994.269 -465.777 L 994.269 -465.777 Q 989.072 -468.422 986.584 -472.076 L 986.584 -472.076 L 986.584 -472.076 Q 984.096 -475.729 984.096 -480.768 L 984.096 -480.768 L 984.096 -480.768 Q 984.096 -489.146 991.183 -494.94 L 991.183 -494.94 L 991.183 -494.94 Q 998.269 -500.735 1009.292 -500.735 L 1009.292 -500.735 L 1009.292 -500.735 Q 1020.882 -500.735 1028.094 -494.751 L 1028.094 -494.751 L 1028.094 -494.751 Q 1035.306 -488.768 1035.306 -479.445 L 1035.306 -479.445 L 1023.59 -479.445 L 1023.59 -479.445 Q 1023.59 -484.232 1019.527 -487.697 L 1019.527 -487.697 L 1019.527 -487.697 Q 1015.465 -491.161 1009.292 -491.161 L 1009.292 -491.161 L 1009.292 -491.161 Q 1002.93 -491.161 999.34 -488.39 L 999.34 -488.39 L 999.34 -488.39 Q 995.749 -485.618 995.749 -481.146 L 995.749 -481.146 L 995.749 -481.146 Q 995.749 -476.926 999.088 -474.784 L 999.088 -474.784 L 999.088 -474.784 Q 1002.426 -472.643 1011.15 -470.69 L 1011.15 -470.69 L 1011.15 -470.69 Q 1019.874 -468.737 1025.291 -466.029 L 1025.291 -466.029 L 1025.291 -466.029 Q 1030.708 -463.32 1033.322 -459.51 L 1033.322 -459.51 L 1033.322 -459.51 Q 1035.936 -455.699 1035.936 -450.219 L 1035.936 -450.219 L 1035.936 -450.219 Q 1035.936 -441.085 1028.629 -435.574 L 1028.629 -435.574 L 1028.629 -435.574 Q 1021.322 -430.062 1009.67 -430.062 L 1009.67 -430.062 L 1009.67 -430.062 Q 1001.481 -430.062 995.182 -432.96 L 995.182 -432.96 L 995.182 -432.96 Q 988.883 -435.857 985.325 -441.054 L 985.325 -441.054 L 985.325 -441.054 Q 981.766 -446.25 981.766 -452.297 L 981.766 -452.297 L 993.419 -452.297 L 993.419 -452.297 Q 993.734 -446.439 998.111 -443.007 L 998.111 -443.007 L 998.111 -443.007 Q 1002.489 -439.574 1009.67 -439.574 L 1009.67 -439.574 L 1009.67 -439.574 Q 1016.283 -439.574 1020.283 -442.251 L 1020.283 -442.251 L 1020.283 -442.251 Q 1024.283 -444.928 1024.283 -449.4 Z  M 1090.799 -449.4 L 1090.799 -449.4 L 1090.799 -449.4 Q 1090.799 -454.124 1087.24 -456.738 L 1087.24 -456.738 L 1087.24 -456.738 Q 1083.681 -459.352 1074.831 -461.242 L 1074.831 -461.242 L 1074.831 -461.242 Q 1065.981 -463.131 1060.785 -465.777 L 1060.785 -465.777 L 1060.785 -465.777 Q 1055.588 -468.422 1053.1 -472.076 L 1053.1 -472.076 L 1053.1 -472.076 Q 1050.612 -475.729 1050.612 -480.768 L 1050.612 -480.768 L 1050.612 -480.768 Q 1050.612 -489.146 1057.698 -494.94 L 1057.698 -494.94 L 1057.698 -494.94 Q 1064.784 -500.735 1075.807 -500.735 L 1075.807 -500.735 L 1075.807 -500.735 Q 1087.397 -500.735 1094.609 -494.751 L 1094.609 -494.751 L 1094.609 -494.751 Q 1101.821 -488.768 1101.821 -479.445 L 1101.821 -479.445 L 1090.106 -479.445 L 1090.106 -479.445 Q 1090.106 -484.232 1086.043 -487.697 L 1086.043 -487.697 L 1086.043 -487.697 Q 1081.98 -491.161 1075.807 -491.161 L 1075.807 -491.161 L 1075.807 -491.161 Q 1069.446 -491.161 1065.855 -488.39 L 1065.855 -488.39 L 1065.855 -488.39 Q 1062.265 -485.618 1062.265 -481.146 L 1062.265 -481.146 L 1062.265 -481.146 Q 1062.265 -476.926 1065.603 -474.784 L 1065.603 -474.784 L 1065.603 -474.784 Q 1068.942 -472.643 1077.665 -470.69 L 1077.665 -470.69 L 1077.665 -470.69 Q 1086.389 -468.737 1091.806 -466.029 L 1091.806 -466.029 L 1091.806 -466.029 Q 1097.223 -463.32 1099.837 -459.51 L 1099.837 -459.51 L 1099.837 -459.51 Q 1102.451 -455.699 1102.451 -450.219 L 1102.451 -450.219 L 1102.451 -450.219 Q 1102.451 -441.085 1095.145 -435.574 L 1095.145 -435.574 L 1095.145 -435.574 Q 1087.838 -430.062 1076.185 -430.062 L 1076.185 -430.062 L 1076.185 -430.062 Q 1067.997 -430.062 1061.698 -432.96 L 1061.698 -432.96 L 1061.698 -432.96 Q 1055.399 -435.857 1051.84 -441.054 L 1051.84 -441.054 L 1051.84 -441.054 Q 1048.281 -446.25 1048.281 -452.297 L 1048.281 -452.297 L 1059.934 -452.297 L 1059.934 -452.297 Q 1060.249 -446.439 1064.627 -443.007 L 1064.627 -443.007 L 1064.627 -443.007 Q 1069.005 -439.574 1076.185 -439.574 L 1076.185 -439.574 L 1076.185 -439.574 Q 1082.799 -439.574 1086.799 -442.251 L 1086.799 -442.251 L 1086.799 -442.251 Q 1090.799 -444.928 1090.799 -449.4 Z  M 496.945 -523.033 L 512.566 -523.033 L 542.549 -448.203 L 572.531 -523.033 L 588.215 -523.033 L 588.215 -431.322 L 576.121 -431.322 L 576.121 -467.037 L 577.255 -505.585 L 547.147 -431.322 L 537.887 -431.322 L 507.842 -505.396 L 509.039 -467.037 L 509.039 -431.322 L 496.945 -431.322 L 496.945 -523.033 L 496.945 -523.033 Z " fill="rgb(255,255,255)"/></g></svg>